<svg xmlns="http://www.w3.org/2000/svg" height="800" width="1200" viewBox="-73.63545 -28.2 638.1739 169.2"><path d="M16.7 1.5C15 .5 13.2 0 11.1 0 9 0 7.1.5 5.5 1.5c-1.7 1-3 2.3-4 4C.5 7.2 0 9 0 11s.5 3.8 1.5 5.5c1 1.7 2.3 3 4 4 1.7 1 3.5 1.5 5.6 1.5 2.1 0 4-.5 5.6-1.5 1.7-1 3-2.3 4-4 1-1.7 1.5-3.5 1.5-5.5s-.5-3.8-1.5-5.5c-1-1.7-2.3-3-4-4zM.5 32.6h21.4v78.5H.5zm106.8-17.2c-3.3-3.2-7.1-5.7-11.6-7.4-4.5-1.7-9.4-2.6-14.8-2.6h-43v105.7H60V77.8h19.8c5.6 0 10.7-.9 15.3-2.6 4.6-1.7 8.6-4.2 11.9-7.4 3.3-3.2 5.9-7 7.8-11.4 1.8-4.4 2.7-9.4 2.7-14.8s-.9-10.4-2.6-14.8c-1.8-4.4-4.3-8.2-7.6-11.4zM89.7 55.7c-3.5 3.2-8.4 4.9-14.8 4.9H60V23h15c6.3 0 11.3 1.6 14.8 4.9 3.5 3.2 5.2 7.9 5.2 13.9s-1.8 10.6-5.3 13.9zm86.5-21.5c-5-2.2-10.8-3.3-17.6-3.3-6.9 0-12.9 1.1-18 3.3-5.1 2.2-9 5.2-11.9 9-2.8 3.9-4.4 8.3-4.7 13.4h19.6c.5-2.9 2-5.2 4.4-7 2.4-1.8 5.6-2.7 9.6-2.7 4.1 0 7.3 1 9.6 3 2.4 2 3.6 4.9 3.6 8.5v5.2L151 64.8c-9.8.6-17.3 2.9-22.6 7-5.3 4.1-7.9 9.6-7.9 16.8 0 4.7 1.1 8.8 3.4 12.4 2.3 3.6 5.4 6.4 9.4 8.4s8.5 3 13.4 3c3.3 0 6.5-.5 9.6-1.6 3.1-1 5.9-2.6 8.4-4.5 2.5-2 4.5-4.4 6-7.1h.4v12h20.7v-54c0-5.3-1.4-9.9-4.1-13.8-2.6-4-6.5-7-11.5-9.2zm-5.3 48.2c0 2.8-.8 5.3-2.3 7.5-1.5 2.2-3.6 3.9-6.2 5.2-2.6 1.2-5.4 1.9-8.5 1.9-3.6 0-6.5-.9-8.8-2.6-2.2-1.7-3.3-4-3.3-7 0-2.8 1.1-5 3.3-6.7 2.2-1.7 5.3-2.7 9.3-3l16.6-1v5.7zm88.5-36.3h-.4c-1.3-2.9-3.1-5.5-5.4-7.7-2.3-2.2-5.1-3.9-8.2-5.2-3.1-1.2-6.6-1.9-10.4-1.9-6.6 0-12.3 1.6-17.1 4.9-4.8 3.3-8.5 7.9-11.1 14-2.6 6-3.9 13.2-3.9 21.5 0 8.4 1.3 15.6 3.9 21.7 2.6 6.1 6.3 10.7 11.1 14 4.8 3.3 10.4 4.9 17 4.9 3.9 0 7.4-.6 10.6-1.9 3.2-1.2 6-3 8.4-5.2 2.4-2.2 4.2-4.8 5.5-7.7h.4V111h21.1V5.5h-21.4v40.6zm-2.1 38.2c-1.4 3.5-3.5 6.2-6.1 8.1-2.6 1.9-5.7 2.8-9.2 2.8-3.6 0-6.7-.9-9.3-2.8-2.6-1.9-4.6-4.6-6-8.1-1.4-3.5-2.1-7.6-2.1-12.4 0-4.8.7-8.9 2.1-12.4 1.4-3.5 3.4-6.2 6-8.1 2.6-1.9 5.7-2.9 9.3-2.9 3.5 0 6.6 1 9.2 2.9 2.6 1.9 4.6 4.6 6.1 8.1 1.4 3.5 2.2 7.6 2.2 12.4 0 4.8-.7 8.9-2.2 12.4zm124.4-66c-4.4-4.8-9.8-8.4-16.1-10.9-6.3-2.5-13.3-3.8-21.1-3.8-7.9 0-14.9 1.3-21.2 3.8-6.3 2.5-11.6 6.2-16 10.9-4.4 4.8-7.8 10.5-10.2 17.2-2.4 6.7-3.6 14.3-3.6 22.7 0 8.4 1.2 16 3.6 22.7 2.4 6.7 5.8 12.5 10.2 17.2 4.4 4.8 9.8 8.4 16 10.9 6.3 2.5 13.3 3.8 21.2 3.8 7.8 0 14.9-1.3 21.1-3.8 6.3-2.5 11.6-6.2 16.1-10.9 4.4-4.8 7.8-10.5 10.2-17.2 2.4-6.7 3.6-14.3 3.6-22.7 0-8.4-1.2-16-3.6-22.7-2.3-6.6-5.7-12.4-10.2-17.2zm-12.3 59.2c-2.3 5.4-5.6 9.6-9.9 12.5-4.2 3-9.3 4.4-15 4.4-5.8 0-10.8-1.5-15.1-4.4-4.2-3-7.5-7.1-9.9-12.5-2.3-5.4-3.5-11.8-3.5-19.2 0-7.4 1.2-13.8 3.5-19.2 2.3-5.4 5.6-9.6 9.9-12.6 4.2-3 9.3-4.4 15-4.4 5.8 0 10.8 1.5 15 4.4 4.2 3 7.5 7.2 9.9 12.6 2.3 5.4 3.5 11.9 3.5 19.2.1 7.4-1.1 13.8-3.4 19.2zm113.9-17.4c-5.1-4.7-13.2-8.2-24.4-10.4l-11.2-2.3c-6.3-1.3-10.7-2.9-13.5-5-2.7-2.1-4.1-4.7-4.1-8 0-2.6.8-4.8 2.3-6.8 1.5-1.9 3.6-3.4 6.4-4.5 2.7-1.1 5.9-1.6 9.6-1.6 3.7 0 7 .6 9.9 1.7 2.9 1.1 5.2 2.8 6.9 5 1.7 2.2 2.7 4.7 2.9 7.7H489c-.1-6.5-1.9-12.2-5.2-17-3.3-4.8-8-8.6-14-11.3-6-2.7-13.1-4-21.4-4-5.9 0-11.3.8-16.2 2.3-4.9 1.5-9.2 3.7-12.8 6.6-3.6 2.9-6.4 6.3-8.4 10.2-2 3.9-3 8.3-3 13.1 0 7.9 2.6 14.3 7.8 19.3 5.2 5 13.1 8.6 23.6 10.7l11.1 2.2c6.6 1.4 11.3 3.1 14.1 5.2 2.8 2.1 4.1 4.9 4.1 8.4 0 2.6-.8 4.9-2.5 6.9s-4 3.6-7 4.8c-3 1.2-6.4 1.8-10.4 1.8s-7.6-.6-10.8-1.7c-3.2-1.1-5.8-2.7-7.8-4.9-2-2.1-3.2-4.7-3.7-7.6h-20.9c.2 6.6 2.1 12.4 5.7 17.1 3.6 4.8 8.5 8.5 14.8 11 6.3 2.6 13.7 3.8 22.1 3.8 8.8 0 16.4-1.4 22.8-4.1 6.3-2.8 11.2-6.7 14.7-11.7 3.4-5.1 5.2-11 5.2-17.9.1-7.9-2.5-14.3-7.6-19z"/></svg>