<svg xmlns="http://www.w3.org/2000/svg" height="800" width="1200" viewBox="-20.032035 -13.414575 173.61097 80.48745"><path d="M0 4.9151A4.9121 4.9121 0 014.9863.0011a4.9206 4.9206 0 015.0225 4.914 4.9362 4.9362 0 01-5.0225 4.878A4.9277 4.9277 0 010 4.915zm.5059 9.9004h8.997v38.3008H.506zM38.2285.9767c10.3701 0 17.5606 7.0459 17.5606 17.4521 0 10.4063-7.4073 17.4522-17.958 17.4522H27.2803v17.2353H17.958V.9767zM27.2803 28.3653h8.455c6.6846 0 10.587-3.6133 10.587-9.9365 0-6.251-3.8662-9.8281-10.5508-9.8281h-8.4912zM57.2344 42.132c0-6.8292 5.2754-10.7677 14.9228-11.3458l9.9004-.6142v-2.71c0-4.0108-2.71-6.2149-7.335-6.2149-3.9023 0-6.6845 2.0235-7.2627 5.0586h-8.3105c.253-7.0459 6.7569-12.0684 15.8985-12.0684 9.6113 0 15.8984 4.9864 15.8984 12.6104v26.2686h-8.6719v-6.1065h-.1806c-2.1319 4.083-6.8652 6.6485-11.9238 6.6485-7.5157 0-12.9356-4.6973-12.9356-11.5264zm24.8232-3.216v-2.8905l-8.6357.542c-4.6973.3252-7.1543 2.1318-7.1543 5.203 0 3.0353 2.6015 5.0948 6.6123 5.0948 5.167 0 9.1777-3.3965 9.1777-7.9492zm14.5254-4.9862c0-11.9239 6.3594-19.5479 15.8985-19.5479 5.4921 0 9.828 2.6377 11.8515 6.8652h.2168V.9767h8.997v52.1396h-8.8164v-6.54h-.1445c-2.0957 4.2998-6.5039 6.9736-12.1045 6.9736-9.539 0-15.8984-7.6602-15.8984-19.6201zm9.2139.036c0 7.4435 3.6855 12.1407 9.3945 12.1407 5.6729 0 9.3945-4.7695 9.3945-12.1406 0-7.335-3.7216-12.1768-9.3945-12.1768-5.709 0-9.3945 4.7696-9.3945 12.1768z"/></svg>